<svg viewBox="0 0 9 10" fill="none" xmlns="http://www.w3.org/2000/svg">
<path opacity="0.6" d="M6.07419 2.29985L2.46614 6.16362C2.30527 6.33244 2.2149 6.56141 2.2149 6.80016C2.2149 7.0389 2.30527 7.26787 2.46614 7.43669C2.62701 7.60551 2.8452 7.70035 3.0727 7.70035C3.3002 7.70035 3.51839 7.60551 3.67926 7.43669L7.28731 3.57292C7.60899 3.23534 7.78971 2.77749 7.78971 2.30008C7.78971 1.82267 7.60899 1.36481 7.28731 1.02723C6.96563 0.68965 6.52933 0.5 6.07441 0.5C5.61948 0.5 5.18318 0.68965 4.8615 1.02723L1.26846 4.87525C1.02635 5.12522 0.833797 5.42302 0.701908 5.75147C0.570019 6.07993 0.501404 6.43254 0.500021 6.78896C0.498638 7.14538 0.564515 7.49856 0.69385 7.82814C0.823186 8.15771 1.01342 8.45714 1.25358 8.70917C1.49374 8.96121 1.77908 9.16084 2.09313 9.29657C2.40718 9.4323 2.74373 9.50143 3.08337 9.49998C3.42301 9.49853 3.75901 9.42652 4.072 9.28811C4.38498 9.14971 4.66876 8.94764 4.90696 8.69356L8.5 4.84555" stroke="#141413" stroke-linecap="round" stroke-linejoin="round"/>
</svg>
