<svg viewBox="0 0 10 10" fill="none" xmlns="http://www.w3.org/2000/svg">
<path opacity="0.6" d="M0.5 2.74938V5.52602C0.500051 5.76463 0.594877 5.99345 0.763622 6.16214L3.78223 9.18081C3.96906 9.3691 4.21867 9.48202 4.48343 9.49803C4.7482 9.51404 5.00959 9.43203 5.21775 9.26764M5.52591 0.5C5.76452 0.500051 5.99333 0.594879 6.16203 0.763628L9.18063 3.7823C9.28183 3.88267 9.36215 4.00209 9.41696 4.13366C9.47178 4.26523 9.5 4.40635 9.5 4.54889C9.5 4.69142 9.47178 4.83254 9.41696 4.96412C9.36215 5.09569 9.28183 5.2151 9.18063 5.31548L7.11484 7.38131C7.01447 7.48251 6.89506 7.56283 6.76349 7.61765C6.63192 7.67246 6.4908 7.70068 6.34827 7.70068C6.20574 7.70068 6.06462 7.67246 5.93305 7.61765C5.80148 7.56283 5.68207 7.48251 5.5817 7.38131L2.56309 4.36264C2.39435 4.19394 2.29952 3.96512 2.29947 3.72651V0.949876C2.29947 0.830562 2.34686 0.716134 2.43123 0.631766C2.5156 0.547398 2.63002 0.5 2.74933 0.5H5.52591ZM4.5488 2.52444C4.5488 2.64867 4.4481 2.74938 4.32387 2.74938C4.19964 2.74938 4.09894 2.64867 4.09894 2.52444C4.09894 2.40021 4.19964 2.29951 4.32387 2.29951C4.4481 2.29951 4.5488 2.40021 4.5488 2.52444Z" stroke="#141413" stroke-linecap="round" stroke-linejoin="round"/>
</svg>
