<svg width="63" height="34" viewBox="0 0 63 34" fill="none" xmlns="http://www.w3.org/2000/svg">
<path d="M1 15.5C1 17.3565 1.7375 19.137 3.05025 20.4497C4.36301 21.7625 6.14348 22.5 8 22.5M8 22.5C9.85652 22.5 11.637 21.7625 12.9497 20.4497C14.2625 19.137 15 17.3565 15 15.5M8 22.5V26.5M4 26.5H12M5 10.5C5 9.70435 5.31607 8.94129 5.87868 8.37868C6.44129 7.81607 7.20435 7.5 8 7.5C8.79565 7.5 9.55871 7.81607 10.1213 8.37868C10.6839 8.94129 11 9.70435 11 10.5V15.5C11 16.2956 10.6839 17.0587 10.1213 17.6213C9.55871 18.1839 8.79565 18.5 8 18.5C7.20435 18.5 6.44129 18.1839 5.87868 17.6213C5.31607 17.0587 5 16.2956 5 15.5V10.5Z" stroke="#666356" stroke-width="2" stroke-linecap="round" stroke-linejoin="round"/>
<rect x="29" width="34" height="34" rx="10" fill="#CD7B53"/>
<path d="M53 17L46 10L39 17M46 10V24" stroke="white" stroke-width="2" stroke-linecap="round" stroke-linejoin="round"/>
</svg>
