<svg width="3.5" height="16" viewBox="0 0 3.5 16" fill="none" xmlns="http://www.w3.org/2000/svg">
<g id="Vector">
<path d="M1.75 8.875C2.16421 8.875 2.5 8.48325 2.5 8C2.5 7.51675 2.16421 7.125 1.75 7.125C1.33579 7.125 1 7.51675 1 8C1 8.48325 1.33579 8.875 1.75 8.875Z" stroke="black" stroke-width="2" stroke-linecap="round" stroke-linejoin="round"/>
<path d="M1.75 2.75C2.16421 2.75 2.5 2.35825 2.5 1.875C2.5 1.39175 2.16421 1 1.75 1C1.33579 1 1 1.39175 1 1.875C1 2.35825 1.33579 2.75 1.75 2.75Z" stroke="black" stroke-width="2" stroke-linecap="round" stroke-linejoin="round"/>
<path d="M1.75 15C2.16421 15 2.5 14.6082 2.5 14.125C2.5 13.6418 2.16421 13.25 1.75 13.25C1.33579 13.25 1 13.6418 1 14.125C1 14.6082 1.33579 15 1.75 15Z" stroke="black" stroke-width="2" stroke-linecap="round" stroke-linejoin="round"/>
</g>
</svg>
