<svg width="105" height="25" viewBox="0 0 105 25" fill="none" xmlns="http://www.w3.org/2000/svg">
<g id="Vote Buttons">
<path id="Thumbs Up" d="M11.2779 11.2V19M16.5224 8.522L15.8669 11.2H19.6889C19.8924 11.2 20.0932 11.247 20.2752 11.3372C20.4573 11.4275 20.6156 11.5585 20.7378 11.72C20.8599 11.8815 20.9424 12.0689 20.9789 12.2674C21.0153 12.466 21.0045 12.6703 20.9476 12.864L19.4201 18.064C19.3406 18.334 19.175 18.5712 18.9481 18.74C18.7211 18.9088 18.4451 19 18.1614 19H9.31114C8.96341 19 8.62991 18.863 8.38403 18.6192C8.13814 18.3754 8 18.0448 8 17.7V12.5C8 12.1552 8.13814 11.8246 8.38403 11.5808C8.62991 11.337 8.96341 11.2 9.31114 11.2H11.1205C11.3645 11.1999 11.6035 11.1323 11.8108 11.0048C12.0181 10.8774 12.1855 10.6951 12.294 10.4785L14.5557 6C14.8649 6.0038 15.1692 6.07681 15.4459 6.21359C15.7226 6.35037 15.9645 6.54737 16.1536 6.78988C16.3427 7.03239 16.4741 7.31414 16.538 7.61408C16.6019 7.91402 16.5965 8.22439 16.5224 8.522Z" stroke="#3D3929" stroke-width="1.6" stroke-linecap="round" stroke-linejoin="round"/>
<path id="Thumbs Down" d="M55.7221 13.8V6M50.4776 16.478L51.1331 13.8H47.3111C47.1076 13.8 46.9068 13.753 46.7248 13.6628C46.5427 13.5725 46.3844 13.4415 46.2622 13.28C46.1401 13.1185 46.0576 12.9311 46.0211 12.7326C45.9847 12.534 45.9955 12.3297 46.0524 12.136L47.5799 6.936C47.6594 6.66597 47.825 6.42877 48.0519 6.26C48.2789 6.09123 48.5549 6 48.8386 6H57.6889C58.0366 6 58.3701 6.13696 58.616 6.38076C58.8619 6.62456 59 6.95522 59 7.3V12.5C59 12.8448 58.8619 13.1754 58.616 13.4192C58.3701 13.663 58.0366 13.8 57.6889 13.8H55.8795C55.6355 13.8001 55.3965 13.8677 55.1892 13.9952C54.9819 14.1226 54.8145 14.3049 54.706 14.5215L52.4443 19C52.1351 18.9962 51.8308 18.9232 51.5541 18.7864C51.2774 18.6496 51.0355 18.4526 50.8464 18.2101C50.6573 17.9676 50.5259 17.6859 50.462 17.3859C50.3981 17.086 50.4035 16.7756 50.4776 16.478Z" stroke="#3D3929" stroke-width="1.6" stroke-linecap="round" stroke-linejoin="round"/>
<path id="Copy" d="M85.3 15.1C84.585 15.1 84 14.515 84 13.8V7.3C84 6.585 84.585 6 85.3 6H91.8C92.515 6 93.1 6.585 93.1 7.3M89.2 9.9H95.7C96.418 9.9 97 10.482 97 11.2V17.7C97 18.418 96.418 19 95.7 19H89.2C88.482 19 87.9 18.418 87.9 17.7V11.2C87.9 10.482 88.482 9.9 89.2 9.9Z" stroke="#3D3929" stroke-width="1.6" stroke-linecap="round" stroke-linejoin="round"/>
</g>
</svg>
