<svg preserveAspectRatio="none" width="100%" height="100%" overflow="visible" style="display: block;" viewBox="0 0 20.0048 20.0048" fill="none" xmlns="http://www.w3.org/2000/svg">
<path id="Vector" d="M10.6413 19.7741C10.8208 19.625 10.9425 19.4178 10.9854 19.1884C11.3302 17.138 12.3056 15.2461 13.7758 13.7758C15.2461 12.3056 17.138 11.3302 19.1884 10.9854C19.4178 10.9425 19.625 10.8208 19.7741 10.6413C19.9232 10.4618 20.0048 10.2358 20.0048 10.0024C20.0048 9.76903 19.9232 9.54302 19.7741 9.36349C19.625 9.18397 19.4178 9.06224 19.1884 9.01939C17.138 8.67456 15.2461 7.69917 13.7758 6.22895C12.3056 4.75874 11.3302 2.8668 10.9854 0.816394C10.9425 0.586998 10.8208 0.37981 10.6413 0.230713C10.4618 0.081616 10.2358 0 10.0024 0C9.76903 0 9.54302 0.081616 9.36349 0.230713C9.18397 0.37981 9.06224 0.586998 9.01939 0.816394C8.67456 2.8668 7.69917 4.75874 6.22895 6.22895C4.75874 7.69917 2.8668 8.67456 0.816394 9.01939C0.586998 9.06224 0.37981 9.18397 0.230713 9.36349C0.081616 9.54302 0 9.76903 0 10.0024C0 10.2358 0.081616 10.4618 0.230713 10.6413C0.37981 10.8208 0.586998 10.9425 0.816394 10.9854C2.8668 11.3302 4.75874 12.3056 6.22895 13.7758C7.69917 15.2461 8.67456 17.138 9.01939 19.1884C9.06224 19.4178 9.18397 19.625 9.36349 19.7741C9.54302 19.9232 9.76903 20.0048 10.0024 20.0048C10.2358 20.0048 10.4618 19.9232 10.6413 19.7741Z" fill="var(--fill-0, #CD815C)"/>
</svg>
