<svg preserveAspectRatio="none" width="100%" height="100%" overflow="visible" style="display: block;" viewBox="0 0 26.2567 26.2567" fill="none" xmlns="http://www.w3.org/2000/svg">
<g id="Vector" filter="url(#filter0_d_259_485)">
<path d="M13.4559 14.1384C13.548 14.062 13.6104 13.9558 13.6324 13.8381C13.8092 12.7869 14.3093 11.8169 15.0631 11.0631C15.8169 10.3093 16.7869 9.80916 17.8381 9.63236C17.9558 9.61039 18.062 9.54798 18.1384 9.45594C18.2149 9.36389 18.2567 9.24801 18.2567 9.12836C18.2567 9.00871 18.2149 8.89283 18.1384 8.80079C18.062 8.70874 17.9558 8.64633 17.8381 8.62436C16.7869 8.44756 15.8169 7.94747 15.0631 7.19367C14.3093 6.43987 13.8092 5.46985 13.6324 4.41858C13.6104 4.30096 13.548 4.19473 13.4559 4.11829C13.3639 4.04185 13.248 4 13.1284 4C13.0087 4 12.8928 4.04185 12.8008 4.11829C12.7087 4.19473 12.6463 4.30096 12.6244 4.41858C12.4476 5.46985 11.9475 6.43987 11.1937 7.19367C10.4399 7.94747 9.46985 8.44756 8.41858 8.62436C8.30096 8.64633 8.19473 8.70874 8.11829 8.80079C8.04185 8.89283 8 9.00871 8 9.12836C8 9.24801 8.04185 9.36389 8.11829 9.45594C8.19473 9.54798 8.30096 9.61039 8.41858 9.63236C9.46985 9.80916 10.4399 10.3093 11.1937 11.0631C11.9475 11.8169 12.4476 12.7869 12.6244 13.8381C12.6463 13.9558 12.7087 14.062 12.8008 14.1384C12.8928 14.2149 13.0087 14.2567 13.1284 14.2567C13.248 14.2567 13.3639 14.2149 13.4559 14.1384Z" fill="var(--fill-0, #CD815C)"/>
</g>
<defs>
<filter id="filter0_d_259_485" x="0" y="0" width="26.2567" height="26.2567" filterUnits="userSpaceOnUse" color-interpolation-filters="sRGB">
<feFlood flood-opacity="0" result="BackgroundImageFix"/>
<feColorMatrix in="SourceAlpha" type="matrix" values="0 0 0 0 0 0 0 0 0 0 0 0 0 0 0 0 0 0 127 0" result="hardAlpha"/>
<feOffset dy="4"/>
<feGaussianBlur stdDeviation="4"/>
<feComposite in2="hardAlpha" operator="out"/>
<feColorMatrix type="matrix" values="0 0 0 0 0.803922 0 0 0 0 0.505882 0 0 0 0 0.364706 0 0 0 1 0"/>
<feBlend mode="normal" in2="BackgroundImageFix" result="effect1_dropShadow_259_485"/>
<feBlend mode="normal" in="SourceGraphic" in2="effect1_dropShadow_259_485" result="shape"/>
</filter>
</defs>
</svg>
