<svg width="2" height="9" viewBox="0 0 2 9" fill="none" xmlns="http://www.w3.org/2000/svg">
<path d="M0.5 4.5C0.5 4.63261 0.552679 4.75979 0.646447 4.85355C0.740215 4.94732 0.867392 5 1 5C1.13261 5 1.25979 4.94732 1.35355 4.85355C1.44732 4.75979 1.5 4.63261 1.5 4.5C1.5 4.36739 1.44732 4.24021 1.35355 4.14645C1.25979 4.05268 1.13261 4 1 4C0.867392 4 0.740215 4.05268 0.646447 4.14645C0.552679 4.24021 0.5 4.36739 0.5 4.5Z" stroke="currentColor" stroke-linecap="round" stroke-linejoin="round"/>
<path d="M0.5 8C0.5 8.13261 0.552679 8.25979 0.646447 8.35355C0.740215 8.44732 0.867392 8.5 1 8.5C1.13261 8.5 1.25979 8.44732 1.35355 8.35355C1.44732 8.25979 1.5 8.13261 1.5 8C1.5 7.86739 1.44732 7.74021 1.35355 7.64645C1.25979 7.55268 1.13261 7.5 1 7.5C0.867392 7.5 0.740215 7.55268 0.646447 7.64645C0.552679 7.74021 0.5 7.86739 0.5 8Z" stroke="currentColor" stroke-linecap="round" stroke-linejoin="round"/>
<path d="M0.5 1C0.5 1.13261 0.552679 1.25979 0.646447 1.35355C0.740215 1.44732 0.867392 1.5 1 1.5C1.13261 1.5 1.25979 1.44732 1.35355 1.35355C1.44732 1.25979 1.5 1.13261 1.5 1C1.5 0.867392 1.44732 0.740215 1.35355 0.646447C1.25979 0.552679 1.13261 0.5 1 0.5C0.867392 0.5 0.740215 0.552679 0.646447 0.646447C0.552679 0.740215 0.5 0.867392 0.5 1Z" stroke="currentColor" stroke-linecap="round" stroke-linejoin="round"/>
</svg>
