<svg width="16" height="15" viewBox="0 0 16 15" fill="none" xmlns="http://www.w3.org/2000/svg">
<path d="M8.47773 1.51251H14.7M8.47773 4.76251H12.3666M8.47773 9.63751H14.7M8.47773 12.8875H12.3666M0.699951 1.51251C0.699951 1.29702 0.781895 1.09036 0.927757 0.937988C1.07362 0.785615 1.27145 0.700012 1.47773 0.700012H4.58884C4.79512 0.700012 4.99295 0.785615 5.13881 0.937988C5.28467 1.09036 5.36662 1.29702 5.36662 1.51251V4.76251C5.36662 4.978 5.28467 5.18466 5.13881 5.33704C4.99295 5.48941 4.79512 5.57501 4.58884 5.57501H1.47773C1.27145 5.57501 1.07362 5.48941 0.927757 5.33704C0.781895 5.18466 0.699951 4.978 0.699951 4.76251V1.51251ZM0.699951 9.63751C0.699951 9.42202 0.781895 9.21536 0.927757 9.06299C1.07362 8.91061 1.27145 8.82501 1.47773 8.82501H4.58884C4.79512 8.82501 4.99295 8.91061 5.13881 9.06299C5.28467 9.21536 5.36662 9.42202 5.36662 9.63751V12.8875C5.36662 13.103 5.28467 13.3097 5.13881 13.462C4.99295 13.6144 4.79512 13.7 4.58884 13.7H1.47773C1.27145 13.7 1.07362 13.6144 0.927757 13.462C0.781895 13.3097 0.699951 13.103 0.699951 12.8875V9.63751Z" stroke="currentColor" stroke-width="1.4" stroke-linecap="round" stroke-linejoin="round"/>
</svg>
