<svg width="14" height="15" viewBox="0 0 14 15" fill="none" xmlns="http://www.w3.org/2000/svg">
<path d="M9.69995 0.700012V3.5889M3.69995 0.700012V3.5889M0.699951 6.47779H12.7M2.94995 8.64446H2.9597M5.20746 8.64446H5.21121M7.45746 8.64446H7.46121M9.71112 8.64446H9.71487M7.46112 10.8111H7.46487M2.95746 10.8111H2.96121M5.20746 10.8111H5.21121M0.699951 3.5889C0.699951 3.20581 0.857986 2.83841 1.13929 2.56752C1.4206 2.29664 1.80213 2.14446 2.19995 2.14446H11.2C11.5978 2.14446 11.9793 2.29664 12.2606 2.56752C12.5419 2.83841 12.7 3.20581 12.7 3.5889V12.2556C12.7 12.6387 12.5419 13.0061 12.2606 13.2769C11.9793 13.5478 11.5978 13.7 11.2 13.7H2.19995C1.80213 13.7 1.4206 13.5478 1.13929 13.2769C0.857986 13.0061 0.699951 12.6387 0.699951 12.2556V3.5889Z" stroke="currentColor" stroke-width="1.4" stroke-linecap="round" stroke-linejoin="round"/>
</svg>
