<svg width="14" height="15" viewBox="0 0 14 15" fill="none" xmlns="http://www.w3.org/2000/svg">
<path d="M9.69995 0.699951V3.58884M3.69995 0.699951V3.58884M0.699951 6.47773H12.7M0.699951 3.58884C0.699951 3.20575 0.857986 2.83835 1.13929 2.56746C1.4206 2.29658 1.80213 2.1444 2.19995 2.1444H11.2C11.5978 2.1444 11.9793 2.29658 12.2606 2.56746C12.5419 2.83835 12.7 3.20575 12.7 3.58884V12.2555C12.7 12.6386 12.5419 13.006 12.2606 13.2769C11.9793 13.5478 11.5978 13.7 11.2 13.7H2.19995C1.80213 13.7 1.4206 13.5478 1.13929 13.2769C0.857986 13.006 0.699951 12.6386 0.699951 12.2555V3.58884ZM3.69995 9.36662H5.19995V10.8111H3.69995V9.36662Z" stroke="currentColor" stroke-width="1.4" stroke-linecap="round" stroke-linejoin="round"/>
</svg>
