<svg width="16" height="16" viewBox="0 0 16 16" fill="none" xmlns="http://www.w3.org/2000/svg">
<path d="M2.30556 14.75H9.3056M6.19447 14.75L0.75 8.52659L7.36114 4.24799M7.5494 4.30555L6.65029 3.40627C6.35851 3.11454 6.19454 2.71882 6.19447 2.30617C6.1944 1.89352 6.35822 1.49774 6.6499 1.20591C6.94158 0.914067 7.33723 0.750073 7.7498 0.75C8.16237 0.749927 8.55807 0.913781 8.84986 1.20552L9.73964 2.09546M10.4723 7.74866L10.634 7.96181C11.0021 8.32628 11.499 8.53073 12.0169 8.53073C12.5348 8.53073 13.0318 8.32628 13.3998 7.96181C14.1302 7.23601 14.1621 6.07923 13.4947 5.31686L13.2101 5.02981M8.52775 9.30452C6.85707 7.63354 6.85707 4.7521 8.52775 3.08111C10.1518 1.4568 13.0715 1.54704 14.75 3.08111L8.52775 9.30452Z" stroke="currentColor" stroke-width="1.5" stroke-linecap="round" stroke-linejoin="round"/>
</svg>
