<svg width="13" height="16" viewBox="0 0 13 16" fill="none" xmlns="http://www.w3.org/2000/svg">
<path d="M3.89286 3.86111H8.60714M3.89286 6.97222H8.60714M3.89286 10.0833H7.03571M0.75 2.30556C0.75 1.893 0.915561 1.49733 1.21026 1.20561C1.50496 0.913888 1.90466 0.75 2.32143 0.75H10.1786C10.5953 0.75 10.995 0.913888 11.2897 1.20561C11.5844 1.49733 11.75 1.893 11.75 2.30556V13.1944C11.75 13.607 11.5844 14.0027 11.2897 14.2944C10.995 14.5861 10.5953 14.75 10.1786 14.75H2.32143C1.90466 14.75 1.50496 14.5861 1.21026 14.2944C0.915561 14.0027 0.75 13.607 0.75 13.1944V2.30556Z" stroke="currentColor" stroke-width="1.5" stroke-linecap="round" stroke-linejoin="round"/>
</svg>
